<svg xmlns="http://www.w3.org/2000/svg" xmlns:xlink="http://www.w3.org/1999/xlink" width="500" zoomAndPan="magnify" viewBox="0 0 375 374.999991" height="500" preserveAspectRatio="xMidYMid meet" version="1.0"><defs><g/><clipPath id="a392cdf959"><path d="M 0 0 L 375 0 L 375 367.855469 L 0 367.855469 Z M 0 0 " clip-rule="nonzero"/></clipPath><clipPath id="42ef92bc3e"><path d="M 187.5 0 C 83.945312 0 0 82.347656 0 183.929688 C 0 285.507812 83.945312 367.855469 187.5 367.855469 C 291.054688 367.855469 375 285.507812 375 183.929688 C 375 82.347656 291.054688 0 187.5 0 Z M 187.5 0 " clip-rule="nonzero"/></clipPath><clipPath id="5aa5fcf676"><path d="M 0 0 L 375 0 L 375 367.855469 L 0 367.855469 Z M 0 0 " clip-rule="nonzero"/></clipPath><clipPath id="1b87bf2ff5"><path d="M 187.5 0 C 83.945312 0 0 82.347656 0 183.929688 C 0 285.507812 83.945312 367.855469 187.5 367.855469 C 291.054688 367.855469 375 285.507812 375 183.929688 C 375 82.347656 291.054688 0 187.5 0 Z M 187.5 0 " clip-rule="nonzero"/></clipPath><clipPath id="836d190c23"><rect x="0" width="375" y="0" height="368"/></clipPath><clipPath id="9455091337"><rect x="0" width="289" y="0" height="174"/></clipPath></defs><g clip-path="url(#a392cdf959)"><g clip-path="url(#42ef92bc3e)"><g transform="matrix(1, 0, 0, 1, 0, 0)"><g clip-path="url(#836d190c23)"><g clip-path="url(#5aa5fcf676)"><g clip-path="url(#1b87bf2ff5)"><path fill="#000000" d="M 0 0 L 375.039062 0 L 375.039062 367.855469 L 0 367.855469 Z M 0 0 " fill-opacity="1" fill-rule="nonzero"/></g></g></g></g></g></g><g transform="matrix(1, 0, 0, 1, 45, 95)"><g clip-path="url(#9455091337)"><g fill="#ffffff" fill-opacity="1"><g transform="translate(0.93489, 138.54236)"><g><path d="M 8.703125 0 L 8.703125 -100.453125 L 48.671875 -100.453125 C 55.992188 -100.453125 62.125 -99.347656 67.0625 -97.140625 C 72.007812 -94.941406 75.726562 -91.894531 78.21875 -88 C 80.71875 -84.113281 81.96875 -79.65625 81.96875 -74.625 C 81.96875 -70.71875 81.191406 -67.28125 79.640625 -64.3125 C 78.097656 -61.34375 75.96875 -58.914062 73.25 -57.03125 C 70.53125 -55.144531 67.414062 -53.796875 63.90625 -52.984375 L 63.90625 -52.109375 C 67.769531 -51.929688 71.363281 -50.84375 74.6875 -48.84375 C 78.019531 -46.84375 80.707031 -44.066406 82.75 -40.515625 C 84.789062 -36.960938 85.8125 -32.738281 85.8125 -27.84375 C 85.8125 -22.488281 84.507812 -17.710938 81.90625 -13.515625 C 79.300781 -9.316406 75.425781 -6.015625 70.28125 -3.609375 C 65.132812 -1.203125 58.765625 0 51.171875 0 Z M 29.25 -16.78125 L 47.390625 -16.78125 C 53.273438 -16.78125 57.625 -17.9375 60.4375 -20.25 C 63.25 -22.570312 64.65625 -25.6875 64.65625 -29.59375 C 64.65625 -32.425781 63.976562 -34.921875 62.625 -37.078125 C 61.28125 -39.234375 59.347656 -40.914062 56.828125 -42.125 C 54.304688 -43.34375 51.316406 -43.953125 47.859375 -43.953125 L 29.25 -43.953125 Z M 29.25 -58.375 L 45.96875 -58.375 C 48.9375 -58.375 51.566406 -58.890625 53.859375 -59.921875 C 56.148438 -60.960938 57.945312 -62.457031 59.25 -64.40625 C 60.5625 -66.363281 61.21875 -68.671875 61.21875 -71.328125 C 61.21875 -75.054688 59.910156 -78.066406 57.296875 -80.359375 C 54.691406 -82.648438 51.007812 -83.796875 46.25 -83.796875 L 29.25 -83.796875 Z M 29.25 -58.375 "/></g></g><g transform="translate(91.738793, 138.54236)"><g><path d="M 37.890625 0 L 2.703125 -100.453125 L 25.484375 -100.453125 L 41.59375 -51.90625 C 43.53125 -45.789062 45.5 -39.082031 47.5 -31.78125 C 49.5 -24.476562 51.617188 -16.515625 53.859375 -7.890625 L 49.078125 -7.890625 C 51.273438 -16.609375 53.335938 -24.59375 55.265625 -31.84375 C 57.203125 -39.101562 59.09375 -45.789062 60.9375 -51.90625 L 76.515625 -100.453125 L 99.09375 -100.453125 L 64.71875 0 Z M 37.890625 0 "/></g></g><g transform="translate(193.530844, 138.54236)"><g><path d="M 45.84375 1.484375 C 37.664062 1.484375 30.585938 0.226562 24.609375 -2.28125 C 18.628906 -4.800781 13.988281 -8.519531 10.6875 -13.4375 C 7.382812 -18.363281 5.664062 -24.398438 5.53125 -31.546875 L 25.546875 -31.546875 C 25.722656 -28.128906 26.6875 -25.238281 28.4375 -22.875 C 30.195312 -20.519531 32.554688 -18.75 35.515625 -17.5625 C 38.484375 -16.375 41.878906 -15.78125 45.703125 -15.78125 C 49.390625 -15.78125 52.613281 -16.316406 55.375 -17.390625 C 58.144531 -18.472656 60.289062 -19.976562 61.8125 -21.90625 C 63.34375 -23.84375 64.109375 -26.066406 64.109375 -28.578125 C 64.109375 -30.867188 63.441406 -32.800781 62.109375 -34.375 C 60.785156 -35.945312 58.832031 -37.296875 56.25 -38.421875 C 53.664062 -39.546875 50.46875 -40.535156 46.65625 -41.390625 L 35.734375 -44.09375 C 26.921875 -46.15625 20.097656 -49.421875 15.265625 -53.890625 C 10.429688 -58.367188 8.015625 -64.25 8.015625 -71.53125 C 8.015625 -77.59375 9.644531 -82.894531 12.90625 -87.4375 C 16.164062 -91.976562 20.640625 -95.515625 26.328125 -98.046875 C 32.015625 -100.585938 38.539062 -101.859375 45.90625 -101.859375 C 53.363281 -101.859375 59.867188 -100.578125 65.421875 -98.015625 C 70.972656 -95.453125 75.296875 -91.878906 78.390625 -87.296875 C 81.492188 -82.710938 83.113281 -77.390625 83.25 -71.328125 L 63.4375 -71.328125 C 63.070312 -75.503906 61.328125 -78.757812 58.203125 -81.09375 C 55.085938 -83.4375 50.945312 -84.609375 45.78125 -84.609375 C 42.3125 -84.609375 39.316406 -84.097656 36.796875 -83.078125 C 34.285156 -82.066406 32.367188 -80.675781 31.046875 -78.90625 C 29.722656 -77.132812 29.0625 -75.101562 29.0625 -72.8125 C 29.0625 -70.425781 29.765625 -68.4375 31.171875 -66.84375 C 32.585938 -65.25 34.539062 -63.921875 37.03125 -62.859375 C 39.53125 -61.804688 42.332031 -60.921875 45.4375 -60.203125 L 54.609375 -57.96875 C 59.054688 -56.988281 63.132812 -55.675781 66.84375 -54.03125 C 70.550781 -52.394531 73.75 -50.40625 76.4375 -48.0625 C 79.132812 -45.726562 81.203125 -42.960938 82.640625 -39.765625 C 84.085938 -36.578125 84.8125 -32.941406 84.8125 -28.859375 C 84.8125 -22.703125 83.257812 -17.34375 80.15625 -12.78125 C 77.050781 -8.21875 72.597656 -4.695312 66.796875 -2.21875 C 61.003906 0.25 54.019531 1.484375 45.84375 1.484375 Z M 45.84375 1.484375 "/></g></g></g></g></g></svg>